<svg xmlns="http://www.w3.org/2000/svg" xmlns:xlink="http://www.w3.org/1999/xlink" width="500" zoomAndPan="magnify" viewBox="0 0 375 149.999998" height="200" preserveAspectRatio="xMidYMid meet" version="1.0"><defs><g/><clipPath id="14db4ac62d"><path d="M 1.601562 74 L 110.296875 74 L 110.296875 111.164062 L 1.601562 111.164062 Z M 1.601562 74 " clip-rule="nonzero"/></clipPath><clipPath id="c1860171b0"><path d="M 23 0.8125 L 89 0.8125 L 89 91 L 23 91 Z M 23 0.8125 " clip-rule="nonzero"/></clipPath><clipPath id="387159bc75"><path d="M 40.269531 19.160156 L 71.476562 19.160156 L 71.476562 50.367188 L 40.269531 50.367188 Z M 40.269531 19.160156 " clip-rule="nonzero"/></clipPath><clipPath id="3cd11bdbde"><path d="M 55.875 19.160156 C 47.257812 19.160156 40.269531 26.144531 40.269531 34.765625 C 40.269531 43.382812 47.257812 50.367188 55.875 50.367188 C 64.492188 50.367188 71.476562 43.382812 71.476562 34.765625 C 71.476562 26.144531 64.492188 19.160156 55.875 19.160156 Z M 55.875 19.160156 " clip-rule="nonzero"/></clipPath><clipPath id="69f55e2e1c"><path d="M 0.269531 0.160156 L 31.476562 0.160156 L 31.476562 31.367188 L 0.269531 31.367188 Z M 0.269531 0.160156 " clip-rule="nonzero"/></clipPath><clipPath id="5f9139285c"><path d="M 15.875 0.160156 C 7.257812 0.160156 0.269531 7.144531 0.269531 15.765625 C 0.269531 24.382812 7.257812 31.367188 15.875 31.367188 C 24.492188 31.367188 31.476562 24.382812 31.476562 15.765625 C 31.476562 7.144531 24.492188 0.160156 15.875 0.160156 Z M 15.875 0.160156 " clip-rule="nonzero"/></clipPath><clipPath id="2d1fbc0f0a"><rect x="0" width="32" y="0" height="32"/></clipPath><clipPath id="214b1e680c"><rect x="0" width="111" y="0" height="112"/></clipPath><clipPath id="ee10680ffe"><path d="M 25.601562 22.460938 L 134.351562 22.460938 L 134.351562 84.710938 L 25.601562 84.710938 Z M 25.601562 22.460938 " clip-rule="nonzero"/></clipPath><clipPath id="9522eaf77a"><path d="M 67 0.460938 L 109 0.460938 L 109 17 L 67 17 Z M 67 0.460938 " clip-rule="nonzero"/></clipPath><clipPath id="4269704b64"><path d="M 0.601562 55 L 4 55 L 4 62.429688 L 0.601562 62.429688 Z M 0.601562 55 " clip-rule="nonzero"/></clipPath><clipPath id="c5b9147549"><path d="M 0.601562 46 L 6 46 L 6 55 L 0.601562 55 Z M 0.601562 46 " clip-rule="nonzero"/></clipPath><clipPath id="1df76451c3"><path d="M 105 0.460938 L 109.351562 0.460938 L 109.351562 6 L 105 6 Z M 105 0.460938 " clip-rule="nonzero"/></clipPath><clipPath id="36e97a3345"><rect x="0" width="110" y="0" height="63"/></clipPath><clipPath id="dc8a604159"><path d="M 25.601562 54 L 46.601562 54 L 46.601562 84.710938 L 25.601562 84.710938 Z M 25.601562 54 " clip-rule="nonzero"/></clipPath><clipPath id="274b9f67a3"><path d="M 0.601562 23 L 4 23 L 4 30.429688 L 0.601562 30.429688 Z M 0.601562 23 " clip-rule="nonzero"/></clipPath><clipPath id="6548ed2cf0"><path d="M 0.601562 14 L 6 14 L 6 23 L 0.601562 23 Z M 0.601562 14 " clip-rule="nonzero"/></clipPath><clipPath id="90d853a5ba"><rect x="0" width="22" y="0" height="31"/></clipPath><clipPath id="166656c0a9"><path d="M 82 74 L 117 74 L 117 90.988281 L 82 90.988281 Z M 82 74 " clip-rule="nonzero"/></clipPath><clipPath id="cb2932f69e"><path d="M 82 82 L 117 82 L 117 90.988281 L 82 90.988281 Z M 82 82 " clip-rule="nonzero"/></clipPath><clipPath id="9ce2db953d"><rect x="0" width="213" y="0" height="69"/></clipPath></defs><g transform="matrix(1, 0, 0, 1, 24, 17)"><g clip-path="url(#214b1e680c)"><g clip-path="url(#14db4ac62d)"><path fill="#046cb8" d="M 30.167969 74.75 C 29.988281 74.761719 29.8125 74.800781 29.648438 74.867188 C 22.074219 76.195312 15.652344 78.054688 10.738281 80.589844 C 8.378906 81.726562 6.296875 83.246094 4.492188 85.144531 C 3.59375 86.058594 2.894531 87.105469 2.394531 88.289062 C 1.894531 89.46875 1.628906 90.699219 1.601562 91.980469 C 1.601562 95.914062 4.203125 98.980469 7.328125 101.234375 C 10.453125 103.492188 14.496094 105.109375 19.355469 106.554688 C 29.007812 109.445312 41.792969 111.109375 55.898438 111.109375 C 70.007812 111.109375 82.785156 109.433594 92.390625 106.554688 C 97.246094 105.109375 101.292969 103.433594 104.414062 101.234375 C 107.535156 99.039062 110.140625 95.914062 110.140625 91.980469 C 110.113281 90.699219 109.847656 89.46875 109.347656 88.289062 C 108.847656 87.105469 108.148438 86.058594 107.25 85.144531 C 105.445312 83.246094 103.363281 81.726562 101.007812 80.589844 C 96.03125 78.046875 89.382812 76.195312 81.574219 74.867188 C 80.8125 74.691406 80.058594 74.722656 79.3125 74.960938 C 78.566406 75.199219 77.933594 75.613281 77.410156 76.195312 C 76.902344 76.796875 76.585938 77.488281 76.460938 78.269531 C 76.335938 79.046875 76.421875 79.804688 76.71875 80.535156 C 77.023438 81.253906 77.492188 81.84375 78.125 82.300781 C 78.761719 82.757812 79.464844 83.015625 80.246094 83.078125 C 87.472656 84.289062 93.429688 86.085938 97.246094 88.046875 C 98.679688 88.757812 99.972656 89.667969 101.121094 90.78125 C 101.8125 91.535156 101.8125 91.941406 101.8125 91.996094 C 101.8125 92.167969 101.527344 93.09375 99.558594 94.421875 C 97.589844 95.753906 94.296875 97.371094 90.074219 98.648438 C 81.515625 101.191406 69.3125 102.808594 55.898438 102.808594 C 42.484375 102.808594 30.226562 101.191406 21.667969 98.648438 C 17.445312 97.371094 14.148438 95.8125 12.1875 94.421875 C 10.222656 93.035156 9.929688 92.167969 9.929688 91.996094 C 9.929688 91.941406 9.929688 91.539062 10.621094 90.78125 C 11.773438 89.667969 13.0625 88.757812 14.496094 88.046875 C 18.253906 86.085938 24.097656 84.289062 31.09375 83.078125 C 31.363281 83.042969 31.628906 82.988281 31.890625 82.902344 C 32.148438 82.816406 32.398438 82.707031 32.636719 82.574219 C 32.875 82.441406 33.097656 82.289062 33.308594 82.109375 C 33.515625 81.933594 33.703125 81.738281 33.875 81.523438 C 34.042969 81.308594 34.191406 81.082031 34.316406 80.839844 C 34.441406 80.597656 34.542969 80.34375 34.621094 80.082031 C 34.695312 79.820312 34.746094 79.550781 34.769531 79.277344 C 34.792969 79.007812 34.789062 78.734375 34.757812 78.464844 C 34.730469 78.191406 34.671875 77.925781 34.589844 77.664062 C 34.507812 77.402344 34.402344 77.152344 34.273438 76.914062 C 34.140625 76.671875 33.988281 76.449219 33.8125 76.238281 C 33.640625 76.027344 33.445312 75.835938 33.234375 75.664062 C 33.019531 75.492188 32.792969 75.34375 32.550781 75.214844 C 32.3125 75.089844 32.058594 74.984375 31.796875 74.90625 C 31.535156 74.828125 31.269531 74.777344 30.996094 74.75 C 30.722656 74.722656 30.453125 74.726562 30.179688 74.75 Z M 30.167969 74.75 " fill-opacity="1" fill-rule="nonzero"/></g><g clip-path="url(#c1860171b0)"><path fill="#046cb8" d="M 55.898438 0.851562 C 56.964844 0.851562 58.023438 0.90625 59.082031 1.007812 C 60.140625 1.113281 61.195312 1.269531 62.238281 1.480469 C 63.28125 1.6875 64.3125 1.945312 65.328125 2.257812 C 66.347656 2.566406 67.347656 2.925781 68.332031 3.332031 C 69.3125 3.738281 70.273438 4.195312 71.214844 4.695312 C 72.152344 5.199219 73.0625 5.746094 73.949219 6.335938 C 74.832031 6.925781 75.6875 7.5625 76.507812 8.234375 C 77.332031 8.910156 78.117188 9.625 78.871094 10.378906 C 79.625 11.128906 80.335938 11.917969 81.011719 12.738281 C 81.6875 13.5625 82.320312 14.414062 82.914062 15.300781 C 83.503906 16.183594 84.050781 17.097656 84.550781 18.035156 C 85.054688 18.972656 85.507812 19.933594 85.917969 20.917969 C 86.324219 21.898438 86.683594 22.898438 86.992188 23.917969 C 87.300781 24.9375 87.558594 25.96875 87.769531 27.011719 C 87.976562 28.054688 88.132812 29.105469 88.238281 30.164062 C 88.34375 31.222656 88.398438 32.285156 88.398438 33.347656 C 88.398438 48.441406 66.191406 79.722656 58.445312 89.324219 C 58.167969 89.714844 57.8125 90.019531 57.382812 90.234375 C 56.953125 90.449219 56.496094 90.546875 56.015625 90.535156 L 55.84375 90.535156 C 55.347656 90.550781 54.875 90.449219 54.425781 90.234375 C 53.976562 90.023438 53.601562 89.71875 53.296875 89.324219 C 45.550781 79.722656 23.34375 48.441406 23.34375 33.347656 C 23.347656 32.285156 23.398438 31.222656 23.507812 30.160156 C 23.613281 29.101562 23.769531 28.050781 23.976562 27.003906 C 24.1875 25.960938 24.445312 24.929688 24.757812 23.910156 C 25.066406 22.890625 25.425781 21.890625 25.835938 20.90625 C 26.242188 19.921875 26.699219 18.960938 27.203125 18.023438 C 27.707031 17.082031 28.253906 16.171875 28.847656 15.285156 C 29.4375 14.402344 30.074219 13.546875 30.75 12.726562 C 31.425781 11.902344 32.140625 11.113281 32.894531 10.363281 C 33.648438 9.609375 34.4375 8.894531 35.261719 8.21875 C 36.085938 7.546875 36.941406 6.914062 37.828125 6.320312 C 38.714844 5.730469 39.625 5.183594 40.566406 4.683594 C 41.503906 4.179688 42.46875 3.726562 43.453125 3.320312 C 44.4375 2.914062 45.4375 2.554688 46.457031 2.246094 C 47.476562 1.9375 48.507812 1.679688 49.554688 1.472656 C 50.597656 1.265625 51.652344 1.109375 52.710938 1.003906 C 53.769531 0.902344 54.832031 0.851562 55.898438 0.851562 Z M 55.898438 22.722656 C 56.652344 22.722656 57.394531 22.796875 58.132812 22.941406 C 58.871094 23.089844 59.585938 23.304688 60.28125 23.59375 C 60.976562 23.878906 61.636719 24.234375 62.261719 24.652344 C 62.886719 25.070312 63.464844 25.542969 64 26.074219 C 64.53125 26.605469 65.003906 27.183594 65.421875 27.808594 C 65.839844 28.433594 66.195312 29.09375 66.480469 29.789062 C 66.769531 30.484375 66.988281 31.199219 67.132812 31.9375 C 67.28125 32.675781 67.355469 33.421875 67.355469 34.171875 C 67.355469 34.925781 67.28125 35.667969 67.132812 36.40625 C 66.988281 37.144531 66.769531 37.859375 66.484375 38.554688 C 66.195312 39.25 65.84375 39.910156 65.425781 40.535156 C 65.007812 41.160156 64.53125 41.738281 64 42.269531 C 63.46875 42.804688 62.890625 43.277344 62.265625 43.695312 C 61.640625 44.113281 60.980469 44.464844 60.285156 44.753906 C 59.589844 45.042969 58.875 45.257812 58.136719 45.40625 C 57.398438 45.550781 56.652344 45.625 55.902344 45.625 C 55.148438 45.625 54.40625 45.550781 53.667969 45.40625 C 52.929688 45.257812 52.214844 45.039062 51.519531 44.753906 C 50.824219 44.464844 50.164062 44.113281 49.539062 43.695312 C 48.914062 43.277344 48.335938 42.800781 47.804688 42.269531 C 47.273438 41.738281 46.796875 41.160156 46.378906 40.53125 C 45.960938 39.90625 45.609375 39.246094 45.324219 38.550781 C 45.035156 37.859375 44.816406 37.140625 44.671875 36.402344 C 44.523438 35.667969 44.453125 34.921875 44.453125 34.167969 C 44.453125 33.417969 44.523438 32.671875 44.671875 31.933594 C 44.816406 31.199219 45.03125 30.480469 45.320312 29.785156 C 45.605469 29.09375 45.960938 28.433594 46.378906 27.808594 C 46.792969 27.179688 47.269531 26.601562 47.800781 26.070312 C 48.332031 25.539062 48.910156 25.066406 49.535156 24.648438 C 50.160156 24.230469 50.820312 23.878906 51.515625 23.589844 C 52.210938 23.304688 52.925781 23.085938 53.664062 22.941406 C 54.402344 22.792969 55.148438 22.722656 55.898438 22.722656 Z M 55.898438 22.722656 " fill-opacity="1" fill-rule="evenodd"/></g><g clip-path="url(#387159bc75)"><g clip-path="url(#3cd11bdbde)"><g transform="matrix(1, 0, 0, 1, 40, 19)"><g clip-path="url(#2d1fbc0f0a)"><g clip-path="url(#69f55e2e1c)"><g clip-path="url(#5f9139285c)"><path fill="#046cb8" d="M 0.269531 0.160156 L 31.476562 0.160156 L 31.476562 31.367188 L 0.269531 31.367188 Z M 0.269531 0.160156 " fill-opacity="1" fill-rule="nonzero"/></g></g></g></g></g></g></g></g><g clip-path="url(#ee10680ffe)"><g transform="matrix(1, 0, 0, 1, 25, 22)"><g clip-path="url(#36e97a3345)"><path fill="#046cb8" d="M 94.773438 38.269531 C 94.246094 38.269531 93.628906 37.890625 93.578125 37.269531 C 93.53125 36.648438 93.4375 35.933594 93.339844 35.214844 C 93.246094 34.597656 93.101562 33.976562 92.863281 33.210938 C 92.53125 32.160156 92.148438 31.113281 91.8125 30.253906 C 91.765625 30.0625 91.671875 29.917969 91.621094 29.726562 C 91.480469 29.34375 91.335938 28.964844 91.144531 28.582031 C 90.574219 27.246094 89.953125 25.910156 89.378906 24.574219 C 89.140625 24.046875 88.949219 23.523438 88.757812 23.046875 L 88.664062 22.855469 C 88.425781 22.234375 88.1875 21.566406 87.996094 20.992188 C 87.898438 20.660156 87.757812 20.324219 87.660156 19.941406 C 87.328125 20.039062 86.992188 20.132812 86.707031 20.179688 C 86.371094 20.277344 86.039062 20.324219 85.75 20.421875 C 85.273438 20.515625 84.796875 20.609375 84.367188 20.753906 C 84.035156 20.847656 83.792969 20.898438 83.554688 20.898438 C 83.507812 20.898438 83.460938 20.898438 83.414062 20.898438 C 82.792969 20.898438 82.316406 20.515625 82.21875 19.894531 C 82.125 19.511719 82.171875 19.179688 82.265625 18.894531 C 82.363281 18.558594 82.554688 18.273438 82.746094 18.035156 C 83.078125 17.605469 83.414062 17.125 83.84375 16.601562 C 84.128906 16.265625 84.367188 15.980469 84.652344 15.648438 L 84.75 15.550781 C 85.273438 14.980469 85.65625 14.5 86.039062 14.070312 C 85.703125 14.070312 85.417969 14.023438 85.082031 13.976562 C 84.511719 13.882812 83.9375 13.738281 83.363281 13.546875 C 82.839844 13.402344 82.363281 13.210938 81.886719 13.023438 L 81.789062 12.972656 L 80.882812 12.640625 C 80.359375 12.449219 79.832031 12.257812 79.308594 12.066406 L 76.96875 11.207031 C 76.15625 10.921875 75.347656 10.683594 74.726562 10.492188 L 74.011719 10.300781 C 73.628906 10.207031 73.292969 10.109375 72.914062 10.015625 C 72.625 9.917969 72.386719 9.632812 72.242188 9.394531 C 72.148438 9.15625 72.101562 8.871094 72.195312 8.628906 C 72.148438 8.535156 72.101562 8.441406 72.101562 8.296875 C 72.054688 7.960938 72.148438 7.628906 72.339844 7.390625 C 72.53125 7.101562 72.816406 7.007812 73.101562 6.914062 C 74.296875 6.578125 75.585938 6.292969 76.875 6.003906 C 77.496094 5.863281 78.164062 5.71875 78.78125 5.574219 L 79.308594 5.433594 C 79.691406 5.335938 80.121094 5.242188 80.5 5.144531 L 80.789062 5.097656 C 81.359375 5.003906 81.933594 4.90625 82.457031 4.765625 C 82.886719 4.667969 83.363281 4.621094 83.792969 4.574219 C 84.035156 4.527344 84.273438 4.527344 84.511719 4.476562 C 84.988281 4.429688 85.417969 4.382812 85.894531 4.335938 C 86.132812 4.335938 86.324219 4.285156 86.5625 4.285156 C 87.089844 4.238281 87.613281 4.191406 88.1875 4.144531 C 90.953125 3.90625 93.4375 3.667969 95.917969 3.285156 C 97.351562 3.046875 98.828125 2.855469 100.261719 2.617188 C 100.546875 2.570312 100.882812 2.519531 101.167969 2.472656 C 101.980469 2.332031 102.839844 2.1875 103.652344 2.089844 C 104.558594 1.996094 105.464844 1.851562 106.371094 1.804688 C 106.417969 1.804688 106.464844 1.804688 106.515625 1.804688 C 107.136719 1.804688 107.660156 2.234375 107.753906 2.808594 C 107.804688 3.140625 107.707031 3.476562 107.515625 3.761719 C 107.324219 4 107.039062 4.144531 106.753906 4.191406 C 106.417969 4.238281 106.085938 4.238281 105.75 4.285156 C 105.75 5.050781 105.65625 5.863281 105.558594 6.578125 C 105.511719 7.054688 105.367188 7.484375 105.273438 7.914062 L 105.273438 7.960938 C 105.179688 8.390625 105.082031 8.871094 104.9375 9.296875 C 104.699219 10.015625 104.460938 10.730469 104.269531 11.398438 C 104.128906 11.828125 103.984375 12.257812 103.792969 12.640625 C 103.699219 12.832031 103.652344 13.023438 103.554688 13.164062 C 103.316406 13.738281 103.125 14.214844 102.933594 14.691406 C 102.648438 15.410156 102.3125 16.125 101.980469 16.839844 L 101.597656 17.984375 C 101.3125 18.796875 101.074219 19.609375 100.835938 20.371094 C 100.738281 20.753906 100.597656 21.136719 100.5 21.519531 C 100.40625 21.851562 100.308594 22.234375 100.214844 22.566406 C 100.167969 22.710938 100.117188 22.902344 100.070312 23.046875 C 99.976562 23.378906 99.878906 23.761719 99.785156 24.09375 L 99.640625 24.621094 L 99.070312 27.199219 C 99.019531 27.4375 98.972656 27.675781 98.925781 27.914062 L 98.878906 28.199219 C 98.734375 28.820312 98.640625 29.441406 98.496094 30.0625 C 98.398438 30.445312 98.304688 30.683594 98.066406 30.871094 C 97.921875 31.015625 97.730469 31.0625 97.492188 31.113281 C 97.445312 31.492188 97.351562 31.875 97.253906 32.257812 C 97.113281 32.828125 96.921875 33.355469 96.683594 33.976562 L 96.730469 34.261719 L 96.824219 34.929688 L 96.921875 35.503906 C 97.015625 36.074219 96.683594 36.601562 96.15625 36.792969 C 96.203125 37.171875 96.109375 37.460938 95.917969 37.699219 C 95.726562 37.9375 95.441406 38.128906 95.15625 38.175781 C 94.867188 38.269531 94.820312 38.269531 94.773438 38.269531 Z M 86.945312 17.03125 C 86.847656 17.222656 86.753906 17.414062 86.660156 17.605469 L 86.609375 17.699219 L 86.5625 17.792969 L 87.039062 17.699219 L 86.945312 17.222656 C 86.945312 17.125 86.945312 17.078125 86.945312 17.03125 Z M 88.804688 14.070312 C 88.757812 14.261719 88.710938 14.453125 88.566406 14.597656 C 88.425781 14.789062 88.28125 14.980469 88.136719 15.167969 C 88.328125 15.167969 88.519531 15.265625 88.710938 15.410156 C 88.949219 15.597656 89.09375 15.835938 89.1875 16.171875 C 89.234375 16.410156 89.285156 16.601562 89.332031 16.839844 C 89.140625 15.933594 88.949219 15.027344 88.804688 14.070312 Z M 88.804688 14.070312 " fill-opacity="1" fill-rule="nonzero"/><path fill="#046cb8" d="M 88.472656 17.890625 C 88.234375 17.792969 87.898438 17.554688 87.851562 17.269531 C 87.660156 16.746094 87.519531 16.171875 87.421875 15.648438 C 87.328125 15.121094 87.230469 14.550781 87.089844 14.023438 C 86.945312 13.402344 87.46875 12.78125 88.089844 12.6875 C 88.757812 12.59375 89.332031 13.070312 89.476562 13.691406 C 89.617188 14.40625 89.761719 15.121094 89.902344 15.835938 C 89.953125 16.027344 90 16.171875 90.046875 16.363281 C 90.144531 16.695312 90.191406 16.984375 90.046875 17.269531 C 89.953125 17.554688 89.714844 17.792969 89.425781 17.9375 C 89.285156 17.984375 89.09375 18.035156 88.949219 18.035156 C 88.804688 17.9375 88.617188 17.9375 88.472656 17.890625 Z M 89.855469 15.695312 C 89.855469 15.648438 89.808594 15.550781 89.808594 15.503906 C 89.808594 15.550781 89.855469 15.597656 89.855469 15.695312 Z M 89.855469 15.695312 " fill-opacity="1" fill-rule="nonzero"/><path fill="#eaebef" d="M 94.488281 38.9375 C 94.199219 38.84375 93.914062 38.605469 93.816406 38.320312 C 92.863281 35.597656 91.859375 32.925781 90.859375 30.253906 C 90 27.867188 89.046875 25.480469 88.136719 23.046875 C 87.898438 22.425781 87.660156 21.851562 87.46875 21.230469 C 87.375 20.945312 87.230469 20.660156 87.136719 20.371094 C 87.039062 20.179688 86.992188 19.992188 86.945312 19.800781 C 86.945312 19.75 86.945312 19.65625 86.945312 19.609375 C 86.945312 19.464844 86.898438 19.273438 86.945312 19.132812 C 86.945312 18.941406 87.039062 18.652344 87.136719 18.464844 C 87.230469 18.175781 87.421875 17.9375 87.566406 17.699219 C 88.328125 16.746094 89.234375 15.980469 90.144531 15.21875 C 90.8125 14.644531 91.480469 14.070312 92.148438 13.5 C 94.152344 11.78125 96.15625 10.0625 98.210938 8.390625 C 99.546875 7.292969 100.929688 6.195312 102.265625 5.097656 C 103.03125 4.476562 103.839844 3.90625 104.605469 3.332031 C 104.988281 3.046875 105.417969 2.808594 105.796875 2.519531 C 106.277344 2.234375 106.707031 1.902344 107.183594 1.613281 C 107.421875 1.472656 107.804688 1.472656 108.089844 1.566406 C 108.375 1.660156 108.613281 1.902344 108.757812 2.1875 C 108.902344 2.472656 108.902344 2.808594 108.804688 3.09375 C 108.710938 3.429688 108.472656 3.617188 108.183594 3.761719 C 107.804688 4 107.421875 4.285156 106.992188 4.527344 C 106.992188 4.527344 106.992188 4.527344 107.039062 4.527344 C 104.796875 6.054688 102.742188 7.769531 100.644531 9.441406 C 99.59375 10.300781 98.589844 11.160156 97.542969 12.019531 C 96.539062 12.878906 95.535156 13.738281 94.535156 14.597656 C 93.914062 15.121094 93.292969 15.648438 92.671875 16.171875 C 91.574219 17.078125 90.476562 17.984375 89.476562 19.035156 C 89.378906 19.132812 89.332031 19.226562 89.234375 19.371094 C 89.476562 19.894531 89.664062 20.46875 89.855469 20.992188 C 90.09375 21.660156 90.382812 22.328125 90.621094 22.996094 C 91.050781 24.144531 91.480469 25.289062 91.910156 26.386719 C 92.863281 28.867188 93.769531 31.398438 94.675781 33.878906 C 95.105469 34.976562 95.488281 36.074219 95.871094 37.171875 C 95.964844 37.507812 96.0625 37.746094 95.917969 38.082031 C 95.824219 38.367188 95.585938 38.605469 95.296875 38.75 C 95.15625 38.84375 94.964844 38.890625 94.773438 38.890625 C 94.726562 38.988281 94.628906 38.988281 94.488281 38.9375 Z M 89.1875 19.65625 C 89.1875 19.609375 89.1875 19.5625 89.234375 19.511719 C 89.1875 19.5625 89.1875 19.609375 89.1875 19.65625 Z M 89.285156 19.5625 C 89.234375 19.511719 89.234375 19.511719 89.285156 19.5625 C 89.234375 19.511719 89.234375 19.511719 89.285156 19.5625 Z M 89.234375 19.371094 C 89.234375 19.371094 89.234375 19.320312 89.285156 19.320312 C 89.285156 19.320312 89.234375 19.320312 89.234375 19.371094 Z M 89.1875 19.320312 C 89.1875 19.273438 89.1875 19.226562 89.1875 19.226562 C 89.1875 19.226562 89.1875 19.273438 89.1875 19.320312 Z M 89.1875 19.320312 " fill-opacity="1" fill-rule="nonzero"/><path fill="#eaebef" d="M 94.773438 39.703125 C 94.152344 39.511719 93.816406 38.796875 94.007812 38.175781 C 95.726562 33.117188 97.398438 28.007812 99.117188 22.949219 C 99.925781 20.46875 100.785156 17.984375 101.644531 15.503906 C 102.503906 12.972656 103.460938 10.445312 104.460938 7.914062 C 105.082031 6.339844 105.847656 4.765625 106.417969 3.140625 C 106.65625 2.519531 107.324219 2.1875 107.945312 2.378906 C 108.566406 2.570312 108.902344 3.285156 108.710938 3.90625 C 108.28125 5.097656 107.753906 6.195312 107.277344 7.34375 C 106.800781 8.535156 106.324219 9.726562 105.847656 10.921875 C 104.9375 13.261719 104.128906 15.648438 103.316406 18.082031 C 101.597656 23.1875 99.878906 28.34375 98.160156 33.449219 C 97.542969 35.265625 96.921875 37.125 96.300781 38.9375 C 96.15625 39.417969 95.679688 39.75 95.15625 39.75 C 95.011719 39.75 94.867188 39.703125 94.773438 39.703125 Z M 94.773438 39.703125 " fill-opacity="1" fill-rule="nonzero"/><path fill="#eaebef" d="M 87.804688 20.609375 C 87.519531 20.609375 87.183594 20.46875 86.992188 20.179688 C 86.039062 18.796875 85.035156 17.460938 83.984375 16.171875 C 83.554688 15.648438 83.605469 14.929688 84.128906 14.5 C 84.605469 14.070312 85.417969 14.121094 85.800781 14.644531 C 86.847656 15.933594 87.851562 17.316406 88.804688 18.652344 C 88.996094 18.941406 89.140625 19.179688 89.09375 19.511719 C 89.09375 19.847656 88.902344 20.132812 88.664062 20.324219 C 88.425781 20.515625 88.1875 20.609375 87.898438 20.609375 C 87.851562 20.609375 87.804688 20.609375 87.804688 20.609375 Z M 87.804688 20.609375 " fill-opacity="1" fill-rule="nonzero"/><path fill="#eaebef" d="M 84.84375 15.648438 C 84.511719 15.648438 84.222656 15.457031 84.035156 15.21875 C 83.84375 14.980469 83.746094 14.644531 83.746094 14.359375 C 83.746094 14.070312 83.890625 13.691406 84.175781 13.546875 C 84.558594 13.308594 84.941406 13.070312 85.320312 12.832031 C 85.609375 12.640625 85.894531 12.449219 86.179688 12.304688 C 86.800781 11.972656 87.46875 11.636719 88.089844 11.304688 C 88.710938 10.96875 89.332031 10.730469 89.953125 10.445312 C 90.382812 10.253906 90.859375 10.015625 91.289062 9.824219 C 93.816406 8.628906 96.394531 7.4375 98.925781 6.195312 C 100.214844 5.574219 101.503906 4.957031 102.792969 4.335938 C 104.175781 3.714844 105.558594 3.140625 106.945312 2.617188 C 107.230469 2.519531 107.515625 2.472656 107.851562 2.570312 C 108.136719 2.664062 108.421875 2.902344 108.519531 3.1875 C 108.804688 3.761719 108.566406 4.527344 107.945312 4.765625 C 106.707031 5.242188 105.464844 5.765625 104.222656 6.292969 C 102.980469 6.816406 101.742188 7.4375 100.5 8.058594 C 98.304688 9.15625 96.0625 10.207031 93.816406 11.253906 C 92.339844 11.925781 90.90625 12.640625 89.425781 13.308594 C 88.804688 13.59375 88.136719 13.929688 87.519531 14.261719 C 86.945312 14.550781 86.46875 14.882812 85.941406 15.21875 C 85.847656 15.265625 85.800781 15.3125 85.703125 15.359375 C 85.464844 15.550781 85.226562 15.648438 84.941406 15.648438 C 84.890625 15.648438 84.890625 15.648438 84.84375 15.648438 Z M 84.84375 15.648438 " fill-opacity="1" fill-rule="nonzero"/><g clip-path="url(#9522eaf77a)"><path fill="#eaebef" d="M 84.890625 16.027344 C 82.21875 15.027344 79.5 14.070312 76.777344 13.070312 C 76.15625 12.832031 75.539062 12.59375 74.964844 12.402344 C 74.34375 12.164062 73.675781 11.925781 73.054688 11.683594 C 71.8125 11.304688 70.574219 10.921875 69.378906 10.492188 C 69.1875 10.445312 69.046875 10.398438 68.855469 10.300781 C 68.664062 10.253906 68.472656 10.15625 68.328125 10.0625 C 68.1875 9.96875 67.996094 9.777344 67.902344 9.632812 C 67.710938 9.394531 67.566406 9.109375 67.613281 8.773438 C 67.613281 8.488281 67.804688 8.152344 68.042969 7.960938 C 68.378906 7.675781 68.710938 7.4375 69.09375 7.246094 C 69.476562 7.054688 69.90625 6.914062 70.335938 6.816406 C 71.242188 6.53125 72.101562 6.339844 73.007812 6.148438 C 73.867188 5.957031 74.679688 5.8125 75.539062 5.671875 C 76.777344 5.433594 78.066406 5.195312 79.308594 5.003906 C 80.550781 4.8125 81.835938 4.574219 83.078125 4.382812 C 84.464844 4.191406 85.847656 4 87.183594 3.808594 C 90 3.429688 92.816406 3 95.632812 2.617188 C 98.066406 2.28125 100.5 1.949219 102.933594 1.519531 C 103.746094 1.375 104.558594 1.230469 105.367188 1.089844 C 106.085938 0.945312 106.800781 0.851562 107.515625 0.660156 C 108.136719 0.46875 108.804688 0.992188 108.902344 1.613281 C 108.949219 1.902344 108.902344 2.234375 108.710938 2.472656 C 108.519531 2.757812 108.234375 2.902344 107.945312 3 C 107.277344 3.1875 106.609375 3.285156 105.894531 3.429688 C 105.320312 3.523438 104.75 3.617188 104.222656 3.714844 C 102.886719 3.953125 101.550781 4.191406 100.214844 4.382812 C 99.019531 4.574219 97.78125 4.714844 96.585938 4.90625 C 95.15625 5.097656 93.722656 5.335938 92.289062 5.527344 C 89.617188 5.910156 86.945312 6.292969 84.273438 6.625 C 81.789062 6.960938 79.355469 7.390625 76.875 7.820312 C 75.203125 8.105469 73.53125 8.390625 71.910156 8.820312 C 72.386719 8.964844 72.863281 9.109375 73.292969 9.296875 C 74.488281 9.679688 75.632812 10.109375 76.777344 10.585938 C 79.308594 11.542969 81.835938 12.402344 84.367188 13.355469 C 84.796875 13.5 85.226562 13.691406 85.609375 13.832031 C 86.230469 14.070312 86.5625 14.738281 86.371094 15.359375 C 86.230469 15.835938 85.75 16.171875 85.226562 16.171875 C 85.179688 16.078125 85.035156 16.078125 84.890625 16.027344 Z M 84.890625 16.027344 " fill-opacity="1" fill-rule="nonzero"/></g><path fill="#eaebef" d="M 79.59375 22.902344 C 79.402344 22.757812 79.261719 22.519531 79.261719 22.28125 C 79.261719 22.234375 79.261719 22.1875 79.261719 22.136719 C 79.210938 21.949219 79.210938 21.707031 79.308594 21.519531 C 79.453125 20.898438 79.785156 20.277344 80.121094 19.75 C 80.453125 19.179688 80.738281 18.605469 81.074219 18.035156 C 81.695312 16.984375 82.316406 15.933594 82.984375 14.882812 C 83.316406 14.308594 84.082031 14.167969 84.652344 14.550781 C 85.226562 14.929688 85.320312 15.648438 84.988281 16.21875 C 84.128906 17.605469 83.269531 18.988281 82.507812 20.421875 C 82.984375 20.277344 83.460938 20.132812 83.890625 19.992188 C 84.511719 19.800781 85.179688 19.65625 85.800781 19.511719 C 86.46875 19.371094 87.183594 19.226562 87.898438 19.132812 C 88.519531 19.035156 89.1875 19.417969 89.285156 20.085938 C 89.425781 20.707031 88.996094 21.375 88.328125 21.46875 C 87.949219 21.519531 87.519531 21.613281 87.136719 21.660156 C 86.847656 21.707031 86.609375 21.757812 86.324219 21.804688 C 85.703125 21.949219 85.082031 22.089844 84.464844 22.28125 C 83.316406 22.617188 82.125 22.949219 80.980469 23.285156 C 80.882812 23.332031 80.789062 23.332031 80.691406 23.332031 C 80.261719 23.332031 79.878906 23.140625 79.59375 22.902344 Z M 79.59375 22.902344 " fill-opacity="1" fill-rule="nonzero"/><g clip-path="url(#4269704b64)"><path fill="#eaebef" d="M 1.03125 61.324219 C 0.933594 60.5625 0.886719 59.84375 0.792969 59.082031 C 0.695312 57.839844 0.601562 56.601562 0.648438 55.359375 C 1.460938 55.550781 2.222656 55.742188 3.035156 55.980469 C 3.035156 56.980469 3.128906 58.03125 3.226562 59.035156 C 3.273438 59.703125 3.320312 60.417969 3.417969 61.085938 C 3.464844 61.753906 2.9375 62.375 2.320312 62.421875 C 2.269531 62.421875 2.222656 62.421875 2.175781 62.421875 C 1.601562 62.421875 1.078125 61.945312 1.03125 61.324219 Z M 1.03125 61.324219 " fill-opacity="1" fill-rule="nonzero"/></g><g clip-path="url(#c5b9147549)"><path fill="#eaebef" d="M 0.839844 53.6875 C 0.980469 53.066406 1.171875 52.398438 1.363281 51.777344 C 1.652344 50.824219 1.984375 49.820312 2.320312 48.914062 C 2.652344 48.007812 3.035156 47.148438 3.464844 46.289062 C 3.609375 46.335938 3.703125 46.386719 3.847656 46.386719 C 4.179688 46.480469 4.515625 46.578125 4.847656 46.671875 C 5.136719 46.765625 5.421875 46.816406 5.660156 46.863281 C 5.707031 46.863281 5.753906 46.910156 5.851562 46.910156 C 5.613281 47.339844 5.421875 47.769531 5.183594 48.199219 C 4.609375 49.34375 4.179688 50.539062 3.796875 51.777344 C 3.847656 51.683594 3.847656 51.589844 3.894531 51.492188 C 3.609375 52.445312 3.320312 53.355469 3.179688 54.308594 C 2.367188 54.070312 1.601562 53.878906 0.839844 53.6875 Z M 0.839844 53.6875 " fill-opacity="1" fill-rule="nonzero"/></g><path fill="#eaebef" d="M 6.566406 45.429688 C 6.136719 45.335938 5.660156 45.238281 5.230469 45.097656 C 4.945312 45 4.609375 44.90625 4.324219 44.808594 C 4.464844 44.570312 4.65625 44.285156 4.800781 44.046875 C 5.753906 42.519531 6.851562 41.039062 8.09375 39.75 C 8.667969 39.128906 9.289062 38.558594 9.957031 38.03125 C 10.242188 38.320312 10.527344 38.652344 10.816406 38.9375 C 11.054688 39.226562 11.339844 39.511719 11.53125 39.796875 C 11.246094 40.039062 10.957031 40.277344 10.671875 40.515625 C 9.238281 41.898438 8 43.472656 6.902344 45.097656 C 6.851562 45.191406 6.757812 45.289062 6.710938 45.429688 C 6.664062 45.429688 6.613281 45.429688 6.566406 45.429688 Z M 6.566406 45.429688 " fill-opacity="1" fill-rule="nonzero"/><path fill="#eaebef" d="M 43.175781 43.332031 C 42.316406 43.234375 41.457031 43.140625 40.597656 42.996094 C 39.738281 42.851562 38.878906 42.566406 38.019531 42.28125 C 38.402344 41.566406 38.738281 40.847656 39.117188 40.132812 C 39.261719 40.179688 39.40625 40.226562 39.546875 40.277344 C 40.503906 40.5625 41.503906 40.753906 42.507812 40.847656 C 43.511719 40.992188 44.558594 41.085938 45.5625 41.136719 C 45.5625 41.136719 45.609375 41.136719 45.609375 41.136719 C 45.609375 41.136719 45.65625 41.136719 45.65625 41.136719 C 46.136719 41.136719 46.613281 41.136719 47.136719 41.136719 C 47.136719 41.230469 47.136719 41.324219 47.136719 41.421875 C 47.136719 41.753906 47.136719 42.089844 47.136719 42.472656 C 47.136719 42.804688 47.089844 43.1875 47.089844 43.523438 C 47.089844 43.523438 47.089844 43.523438 47.042969 43.523438 C 45.800781 43.570312 44.464844 43.472656 43.175781 43.332031 Z M 45.800781 41.136719 C 45.753906 41.136719 45.707031 41.136719 45.65625 41.136719 C 45.753906 41.136719 45.753906 41.136719 45.800781 41.136719 Z M 45.800781 41.136719 " fill-opacity="1" fill-rule="nonzero"/><path fill="#eaebef" d="M 48.808594 42.996094 C 48.855469 42.421875 48.855469 41.851562 48.808594 41.324219 C 48.808594 41.277344 48.808594 41.183594 48.808594 41.136719 C 49.429688 41.085938 50.050781 41.039062 50.667969 40.992188 C 52.386719 40.847656 54.152344 40.5625 55.824219 40.179688 C 56.015625 40.132812 56.253906 40.085938 56.445312 40.039062 C 56.492188 40.132812 56.492188 40.226562 56.539062 40.371094 C 56.683594 40.753906 56.828125 41.183594 56.96875 41.566406 C 57.066406 41.804688 57.160156 42.042969 57.207031 42.28125 C 54.488281 42.996094 51.671875 43.378906 48.855469 43.523438 C 48.808594 43.523438 48.761719 43.523438 48.710938 43.523438 C 48.761719 43.332031 48.808594 43.140625 48.808594 42.996094 Z M 48.808594 42.996094 " fill-opacity="1" fill-rule="nonzero"/><path fill="#eaebef" d="M 58.6875 41.277344 C 58.496094 40.707031 58.257812 40.132812 58.066406 39.511719 C 59.929688 38.890625 61.742188 38.128906 63.460938 37.222656 C 63.988281 36.933594 64.464844 36.648438 64.941406 36.363281 C 65.132812 36.601562 65.273438 36.839844 65.464844 37.078125 C 65.753906 37.507812 66.039062 37.890625 66.324219 38.320312 C 65.945312 38.558594 65.515625 38.796875 65.132812 38.988281 C 63.460938 39.894531 61.742188 40.65625 59.976562 41.324219 C 59.59375 41.46875 59.261719 41.566406 58.878906 41.707031 C 58.785156 41.613281 58.734375 41.46875 58.6875 41.277344 Z M 58.6875 41.277344 " fill-opacity="1" fill-rule="nonzero"/><path fill="#eaebef" d="M 66.800781 36.171875 C 66.660156 35.933594 66.515625 35.742188 66.324219 35.503906 C 66.5625 35.359375 66.800781 35.167969 67.042969 35.027344 C 68.1875 34.214844 69.285156 33.308594 70.335938 32.304688 C 71.242188 31.445312 72.101562 30.585938 72.960938 29.632812 C 73.007812 29.679688 73.054688 29.726562 73.101562 29.773438 C 73.4375 30.15625 73.769531 30.539062 74.152344 30.871094 C 74.34375 31.015625 74.488281 31.207031 74.628906 31.351562 C 74.34375 31.683594 74.011719 31.972656 73.722656 32.304688 C 73.101562 32.972656 72.433594 33.59375 71.71875 34.214844 C 71.050781 34.835938 70.335938 35.453125 69.570312 36.027344 C 68.949219 36.503906 68.28125 36.984375 67.613281 37.410156 C 67.421875 37.078125 67.136719 36.601562 66.800781 36.171875 Z M 66.800781 36.171875 " fill-opacity="1" fill-rule="nonzero"/><path fill="#eaebef" d="M 75.011719 29.441406 C 74.726562 29.105469 74.441406 28.820312 74.152344 28.488281 C 74.726562 27.867188 75.25 27.246094 75.824219 26.625 C 76.253906 26.148438 77.015625 26.050781 77.496094 26.480469 C 77.972656 26.910156 78.066406 27.675781 77.636719 28.152344 C 77.015625 28.820312 76.445312 29.535156 75.824219 30.203125 C 75.539062 29.917969 75.25 29.679688 75.011719 29.441406 Z M 75.011719 29.441406 " fill-opacity="1" fill-rule="nonzero"/><path fill="#eaebef" d="M 33.582031 39.417969 C 33.007812 38.796875 32.578125 38.082031 32.199219 37.316406 C 31.816406 36.554688 31.578125 35.789062 31.386719 35.027344 C 31.050781 35.027344 30.671875 35.027344 30.335938 35.027344 C 30.480469 34.261719 30.621094 33.449219 30.621094 32.640625 C 30.8125 32.640625 31.003906 32.640625 31.148438 32.640625 C 31.148438 32.449219 31.148438 32.304688 31.148438 32.113281 C 31.148438 31.875 31.195312 31.683594 31.195312 31.445312 C 31.242188 31.445312 31.339844 31.445312 31.386719 31.445312 C 31.960938 31.492188 32.484375 31.542969 33.058594 31.542969 C 33.25 31.542969 33.390625 31.542969 33.582031 31.542969 C 33.535156 31.78125 33.535156 32.066406 33.488281 32.351562 C 33.488281 32.398438 33.488281 32.496094 33.488281 32.542969 C 34.726562 32.542969 36.015625 32.496094 37.257812 32.398438 C 37.878906 32.351562 38.449219 32.257812 39.070312 32.210938 C 39.070312 32.640625 39.070312 33.070312 39.070312 33.5 C 39.070312 33.785156 39.117188 34.070312 39.117188 34.355469 C 39.117188 34.453125 39.117188 34.5 39.117188 34.597656 C 38.402344 34.691406 37.734375 34.785156 37.019531 34.835938 C 36.160156 34.882812 35.347656 34.929688 34.488281 34.929688 C 34.25 34.929688 34.011719 34.929688 33.726562 34.929688 C 33.867188 35.40625 34.058594 35.882812 34.296875 36.363281 C 34.585938 36.933594 34.964844 37.460938 35.347656 37.9375 C 35.730469 38.320312 36.160156 38.652344 36.589844 38.9375 C 36.875 39.128906 37.210938 39.273438 37.542969 39.464844 C 37.160156 40.179688 36.828125 40.894531 36.445312 41.613281 C 35.445312 41.085938 34.394531 40.371094 33.582031 39.417969 Z M 33.582031 39.417969 " fill-opacity="1" fill-rule="nonzero"/><path fill="#eaebef" d="M 33.058594 29.917969 C 32.53125 29.871094 32.007812 29.824219 31.480469 29.773438 C 31.53125 29.679688 31.53125 29.535156 31.578125 29.441406 C 31.816406 28.582031 32.152344 27.769531 32.53125 26.960938 C 32.960938 26.148438 33.488281 25.382812 34.058594 24.714844 C 34.585938 24.09375 35.15625 23.570312 35.777344 23.046875 C 36.015625 23.476562 36.253906 23.855469 36.492188 24.285156 C 36.636719 24.574219 36.78125 24.90625 36.972656 25.191406 C 36.972656 25.191406 36.921875 25.191406 36.921875 25.242188 C 36.207031 25.910156 35.585938 26.625 35.015625 27.4375 C 34.585938 28.152344 34.25 28.914062 33.964844 29.726562 C 33.964844 29.773438 33.917969 29.871094 33.917969 29.917969 C 33.628906 29.964844 33.34375 29.917969 33.058594 29.917969 Z M 33.058594 29.917969 " fill-opacity="1" fill-rule="nonzero"/><path fill="#eaebef" d="M 37.878906 23.378906 C 37.640625 22.949219 37.402344 22.519531 37.113281 22.089844 C 37.449219 21.898438 37.78125 21.707031 38.117188 21.519531 C 39.738281 20.660156 41.457031 20.039062 43.273438 19.65625 C 43.652344 19.5625 44.035156 19.511719 44.464844 19.511719 C 44.320312 19.941406 44.179688 20.421875 44.035156 20.847656 C 43.941406 21.183594 43.84375 21.519531 43.796875 21.851562 C 43.796875 21.898438 43.796875 21.949219 43.75 21.996094 C 43.511719 22.042969 43.273438 22.089844 43.082031 22.136719 C 41.792969 22.472656 40.550781 22.949219 39.359375 23.570312 C 38.976562 23.761719 38.640625 24 38.261719 24.238281 C 38.164062 23.902344 38.019531 23.617188 37.878906 23.378906 Z M 37.878906 23.378906 " fill-opacity="1" fill-rule="nonzero"/><path fill="#eaebef" d="M 48.710938 26.195312 C 48.761719 25.910156 48.808594 25.621094 48.855469 25.335938 C 48.855469 24.953125 48.808594 24.574219 48.761719 24.191406 C 48.664062 23.902344 48.570312 23.617188 48.472656 23.378906 C 48.378906 23.1875 48.234375 23.046875 48.09375 22.855469 C 47.855469 22.617188 47.613281 22.425781 47.328125 22.234375 C 47.136719 22.136719 46.945312 22.042969 46.757812 21.949219 C 46.515625 21.898438 46.277344 21.851562 46.039062 21.851562 C 45.992188 21.851562 45.898438 21.851562 45.847656 21.851562 C 45.753906 21.851562 45.65625 21.851562 45.5625 21.851562 C 45.5625 21.757812 45.609375 21.660156 45.609375 21.566406 C 45.65625 21.328125 45.753906 21.089844 45.800781 20.847656 C 45.847656 20.609375 45.945312 20.371094 45.992188 20.132812 C 46.085938 19.894531 46.136719 19.703125 46.230469 19.464844 C 46.515625 19.464844 46.851562 19.511719 47.136719 19.5625 C 47.613281 19.65625 48.042969 19.847656 48.472656 20.132812 C 49.191406 20.5625 49.8125 21.136719 50.335938 21.851562 C 50.859375 22.566406 51.097656 23.476562 51.195312 24.285156 C 51.339844 25.050781 51.242188 25.859375 51.097656 26.625 C 50.242188 26.480469 49.476562 26.339844 48.710938 26.195312 Z M 48.710938 26.195312 " fill-opacity="1" fill-rule="nonzero"/><path fill="#eaebef" d="M 40.835938 34.214844 C 40.835938 33.925781 40.789062 33.640625 40.789062 33.355469 C 40.789062 32.878906 40.789062 32.449219 40.789062 31.972656 C 41.171875 31.921875 41.503906 31.828125 41.839844 31.78125 C 42.414062 31.636719 42.984375 31.492188 43.511719 31.253906 C 43.988281 31.0625 44.464844 30.871094 44.894531 30.632812 C 45.609375 30.253906 46.328125 29.773438 46.945312 29.25 C 47.28125 28.914062 47.566406 28.582031 47.855469 28.199219 C 47.949219 28.058594 47.996094 27.914062 48.09375 27.769531 C 48.902344 27.914062 49.714844 28.058594 50.527344 28.246094 C 50.527344 28.296875 50.480469 28.34375 50.480469 28.34375 C 50.191406 29.011719 49.761719 29.632812 49.332031 30.203125 C 48.902344 30.777344 48.285156 31.253906 47.710938 31.683594 C 47.136719 32.113281 46.566406 32.449219 45.945312 32.78125 C 45.277344 33.117188 44.65625 33.402344 43.941406 33.640625 C 42.9375 33.976562 41.886719 34.214844 40.835938 34.40625 C 40.835938 34.308594 40.835938 34.261719 40.835938 34.214844 Z M 40.835938 34.214844 " fill-opacity="1" fill-rule="nonzero"/><path fill="#eaebef" d="M 22.460938 34.261719 C 22.414062 33.832031 22.316406 33.449219 22.222656 33.019531 C 22.316406 33.019531 22.460938 32.972656 22.554688 32.972656 C 24.132812 32.78125 25.707031 32.640625 27.328125 32.640625 C 27.855469 32.640625 28.378906 32.640625 28.90625 32.640625 C 28.90625 32.734375 28.90625 32.78125 28.90625 32.878906 C 28.855469 33.59375 28.761719 34.308594 28.617188 35.027344 C 27.28125 35.027344 25.945312 35.074219 24.609375 35.167969 C 23.988281 35.214844 23.320312 35.3125 22.699219 35.359375 C 22.605469 35.027344 22.554688 34.644531 22.460938 34.261719 Z M 22.460938 34.261719 " fill-opacity="1" fill-rule="nonzero"/><path fill="#eaebef" d="M 12.34375 38.128906 C 12.007812 37.746094 11.675781 37.363281 11.292969 36.984375 C 11.625 36.742188 11.914062 36.554688 12.246094 36.363281 C 14.777344 34.785156 17.6875 33.832031 20.601562 33.257812 C 20.648438 33.640625 20.742188 34.023438 20.789062 34.40625 C 20.839844 34.785156 20.933594 35.214844 20.980469 35.597656 C 20.601562 35.644531 20.21875 35.742188 19.882812 35.835938 C 18.070312 36.265625 16.257812 36.886719 14.585938 37.746094 C 14.011719 38.082031 13.441406 38.414062 12.867188 38.796875 C 12.722656 38.558594 12.53125 38.367188 12.34375 38.128906 Z M 12.34375 38.128906 " fill-opacity="1" fill-rule="nonzero"/><g clip-path="url(#1df76451c3)"><path fill="#eaebef" d="M 106.800781 5.386719 C 106.179688 5.195312 105.796875 4.527344 105.988281 3.90625 C 106.132812 3.570312 106.226562 3.1875 106.324219 2.855469 C 106.371094 2.757812 106.371094 2.710938 106.417969 2.617188 C 106.464844 2.332031 106.515625 2.089844 106.609375 1.804688 C 106.753906 1.375 107.085938 1.089844 107.46875 0.992188 C 107.515625 0.992188 107.515625 0.992188 107.566406 0.992188 C 107.660156 0.945312 107.804688 0.945312 107.898438 0.945312 C 107.992188 0.945312 108.089844 0.945312 108.183594 0.992188 C 108.710938 1.136719 109.140625 1.613281 109.09375 2.1875 C 109.09375 2.617188 108.949219 3.046875 108.804688 3.429688 C 108.804688 3.476562 108.757812 3.523438 108.757812 3.570312 C 108.664062 3.808594 108.613281 4.097656 108.472656 4.335938 C 108.472656 4.382812 108.421875 4.382812 108.421875 4.429688 C 108.375 4.476562 108.328125 4.574219 108.328125 4.621094 C 108.328125 4.667969 108.28125 4.714844 108.28125 4.714844 C 108.089844 5.144531 107.660156 5.433594 107.183594 5.433594 C 107.039062 5.433594 106.894531 5.386719 106.800781 5.386719 Z M 106.800781 5.386719 " fill-opacity="1" fill-rule="nonzero"/></g></g></g></g><g clip-path="url(#dc8a604159)"><g transform="matrix(1, 0, 0, 1, 25, 54)"><g clip-path="url(#90d853a5ba)"><g clip-path="url(#274b9f67a3)"><path fill="#046cb8" d="M 1.03125 29.324219 C 0.933594 28.5625 0.886719 27.84375 0.792969 27.082031 C 0.695312 25.839844 0.601562 24.601562 0.648438 23.359375 C 1.460938 23.550781 2.222656 23.742188 3.035156 23.980469 C 3.035156 24.980469 3.128906 26.03125 3.226562 27.035156 C 3.273438 27.703125 3.320312 28.417969 3.417969 29.085938 C 3.464844 29.753906 2.9375 30.375 2.320312 30.421875 C 2.269531 30.421875 2.222656 30.421875 2.175781 30.421875 C 1.601562 30.421875 1.078125 29.945312 1.03125 29.324219 Z M 1.03125 29.324219 " fill-opacity="1" fill-rule="nonzero"/></g><g clip-path="url(#6548ed2cf0)"><path fill="#046cb8" d="M 0.839844 21.6875 C 0.980469 21.066406 1.171875 20.398438 1.363281 19.777344 C 1.652344 18.824219 1.984375 17.820312 2.320312 16.914062 C 2.652344 16.007812 3.035156 15.148438 3.464844 14.289062 C 3.609375 14.335938 3.703125 14.386719 3.847656 14.386719 C 4.179688 14.480469 4.515625 14.578125 4.847656 14.671875 C 5.136719 14.765625 5.421875 14.816406 5.660156 14.863281 C 5.707031 14.863281 5.753906 14.910156 5.851562 14.910156 C 5.613281 15.339844 5.421875 15.769531 5.183594 16.199219 C 4.609375 17.34375 4.179688 18.539062 3.796875 19.777344 C 3.847656 19.683594 3.847656 19.589844 3.894531 19.492188 C 3.609375 20.445312 3.320312 21.355469 3.179688 22.308594 C 2.367188 22.070312 1.601562 21.878906 0.839844 21.6875 Z M 0.839844 21.6875 " fill-opacity="1" fill-rule="nonzero"/></g><path fill="#046cb8" d="M 6.566406 13.429688 C 6.136719 13.335938 5.660156 13.238281 5.230469 13.097656 C 4.945312 13 4.609375 12.90625 4.324219 12.808594 C 4.464844 12.570312 4.65625 12.285156 4.800781 12.046875 C 5.753906 10.519531 6.851562 9.039062 8.09375 7.75 C 8.667969 7.128906 9.289062 6.558594 9.957031 6.03125 C 10.242188 6.320312 10.527344 6.652344 10.816406 6.9375 C 11.054688 7.226562 11.339844 7.511719 11.53125 7.796875 C 11.246094 8.039062 10.957031 8.277344 10.671875 8.515625 C 9.238281 9.898438 8 11.472656 6.902344 13.097656 C 6.851562 13.191406 6.757812 13.289062 6.710938 13.429688 C 6.664062 13.429688 6.613281 13.429688 6.566406 13.429688 Z M 6.566406 13.429688 " fill-opacity="1" fill-rule="nonzero"/><path fill="#046cb8" d="M 12.34375 6.128906 C 12.007812 5.746094 11.675781 5.363281 11.292969 4.984375 C 11.625 4.742188 11.914062 4.554688 12.246094 4.363281 C 14.777344 2.785156 17.6875 1.832031 20.601562 1.257812 C 20.648438 1.640625 20.742188 2.023438 20.789062 2.40625 C 20.839844 2.785156 20.933594 3.214844 20.980469 3.597656 C 20.601562 3.644531 20.21875 3.742188 19.882812 3.835938 C 18.070312 4.265625 16.257812 4.886719 14.585938 5.746094 C 14.011719 6.082031 13.441406 6.414062 12.867188 6.796875 C 12.722656 6.558594 12.53125 6.367188 12.34375 6.128906 Z M 12.34375 6.128906 " fill-opacity="1" fill-rule="nonzero"/></g></g></g><g clip-path="url(#166656c0a9)"><path fill="#eaebef" d="M 109.394531 79.230469 C 108.378906 76.4375 104.328125 75.214844 101.300781 76.765625 C 99.894531 72.992188 95.691406 73.144531 94.445312 77.007812 C 91.824219 75.753906 88.582031 77.214844 88.121094 79.910156 C 85.050781 79.921875 82.617188 81.683594 82.621094 83.800781 C 82.628906 86.171875 85.746094 87.9375 89.070312 87.445312 C 90.628906 90.484375 96.867188 91.152344 99.847656 88.570312 C 102.128906 91.144531 107.644531 90.480469 108.589844 87.492188 C 112.199219 88.652344 116.816406 86.960938 116.816406 83.464844 C 116.816406 80.253906 112.898438 78.535156 109.394531 79.230469 " fill-opacity="1" fill-rule="nonzero"/><path fill="#eaebef" d="M 109.394531 79.230469 C 108.378906 76.4375 104.328125 75.214844 101.300781 76.765625 C 99.894531 72.992188 95.691406 73.144531 94.445312 77.007812 C 91.824219 75.753906 88.582031 77.214844 88.121094 79.910156 C 85.050781 79.921875 82.617188 81.683594 82.621094 83.800781 C 82.628906 86.171875 85.746094 87.9375 89.070312 87.445312 C 90.628906 90.484375 96.867188 91.152344 99.847656 88.570312 C 102.128906 91.144531 107.644531 90.480469 108.589844 87.492188 C 112.199219 88.652344 116.816406 86.960938 116.816406 83.464844 C 116.816406 80.253906 112.898438 78.535156 109.394531 79.230469 " fill-opacity="1" fill-rule="nonzero"/></g><path fill="#eaebef" d="M 88.09375 79.910156 C 87.910156 80.253906 87.777344 80.628906 87.710938 81.035156 C 85.539062 81.039062 83.671875 81.878906 82.710938 83.09375 C 83.175781 81.3125 85.386719 79.929688 88.09375 79.910156 " fill-opacity="1" fill-rule="nonzero"/><path fill="#eaebef" d="M 116.664062 82.402344 C 115.320312 80.632812 112.414062 79.820312 109.738281 80.34375 C 108.6875 77.5 104.492188 76.257812 101.359375 77.835938 C 99.902344 74 95.546875 74.152344 94.257812 78.078125 C 91.972656 77.007812 89.226562 77.894531 88.136719 79.839844 C 88.640625 77.1875 91.847656 75.765625 94.445312 77.007812 C 95.691406 73.140625 99.898438 72.992188 101.304688 76.765625 C 104.328125 75.214844 108.378906 76.4375 109.394531 79.230469 C 112.492188 78.617188 115.910156 79.886719 116.664062 82.402344 " fill-opacity="1" fill-rule="nonzero"/><path fill="#eaebef" d="M 88.136719 79.839844 C 88.128906 79.863281 88.125 79.886719 88.121094 79.910156 L 88.09375 79.910156 C 88.109375 79.886719 88.121094 79.863281 88.136719 79.839844 " fill-opacity="1" fill-rule="nonzero"/><g clip-path="url(#cb2932f69e)"><path fill="#eaebef" d="M 108.589844 87.492188 C 107.648438 90.472656 102.136719 91.152344 99.847656 88.570312 C 96.863281 91.15625 90.625 90.480469 89.070312 87.445312 C 85.386719 87.992188 81.964844 85.753906 82.726562 83.035156 C 83.300781 85.035156 86.125 86.382812 89.070312 85.945312 C 89.882812 87.527344 92.191406 88.671875 94.914062 88.671875 C 96.933594 88.671875 98.753906 86.890625 99.875 85.917969 C 100.730469 86.878906 102.199219 88.671875 103.90625 88.671875 C 106.191406 88.671875 108.105469 87.527344 108.589844 85.992188 C 111.917969 87.0625 116.132812 85.703125 116.742188 82.714844 C 117.53125 86.566406 112.570312 88.773438 108.589844 87.492188 " fill-opacity="1" fill-rule="nonzero"/></g><path fill="#eaebef" d="M 113.738281 85.929688 C 111.40625 87.910156 108.238281 87.113281 107.117188 84.277344 C 108.863281 85.960938 111.40625 86.59375 113.738281 85.929688 " fill-opacity="1" fill-rule="nonzero"/><path fill="#eaebef" d="M 91.417969 84.925781 C 89.746094 87.492188 86.484375 87.625 84.601562 85.226562 C 86.753906 86.34375 89.371094 86.226562 91.417969 84.925781 " fill-opacity="1" fill-rule="nonzero"/><path fill="#eaebef" d="M 103.390625 84.644531 C 101.71875 87.210938 98.453125 87.34375 96.574219 84.945312 C 98.726562 86.0625 101.34375 85.945312 103.390625 84.644531 " fill-opacity="1" fill-rule="nonzero"/><path fill="#eaebef" d="M 92.296875 82.242188 C 93.96875 79.675781 97.234375 79.542969 99.113281 81.941406 C 96.960938 80.824219 94.34375 80.941406 92.296875 82.242188 " fill-opacity="1" fill-rule="nonzero"/><path fill="#eaebef" d="M 108.171875 81.234375 C 109.84375 78.667969 113.105469 78.535156 114.988281 80.933594 C 112.835938 79.816406 110.21875 79.933594 108.171875 81.234375 " fill-opacity="1" fill-rule="nonzero"/><path fill="#eaebef" d="M 100.597656 78.675781 C 102.074219 75.992188 105.320312 75.617188 107.371094 77.871094 C 105.144531 76.917969 102.542969 77.226562 100.597656 78.675781 " fill-opacity="1" fill-rule="nonzero"/><path fill="#eaebef" d="M 88.476562 78.90625 C 90.125 76.324219 93.386719 76.15625 95.289062 78.539062 C 93.125 77.441406 90.511719 77.585938 88.476562 78.90625 " fill-opacity="1" fill-rule="nonzero"/><path fill="#eaebef" d="M 75.28125 20.125 C 74.445312 17.828125 71.121094 16.828125 68.636719 18.097656 C 67.480469 15.003906 64.027344 15.125 63.007812 18.296875 C 60.855469 17.269531 58.191406 18.46875 57.8125 20.679688 C 55.292969 20.691406 53.292969 22.136719 53.296875 23.875 C 53.300781 25.820312 55.863281 27.269531 58.59375 26.867188 C 59.871094 29.363281 64.992188 29.914062 67.441406 27.792969 C 69.3125 29.90625 73.839844 29.359375 74.617188 26.90625 C 77.582031 27.859375 81.375 26.46875 81.375 23.601562 C 81.375 20.964844 78.15625 19.550781 75.28125 20.125 " fill-opacity="1" fill-rule="nonzero"/><path fill="#eaebef" d="M 75.28125 20.125 C 74.445312 17.828125 71.121094 16.828125 68.636719 18.097656 C 67.480469 15.003906 64.027344 15.125 63.007812 18.296875 C 60.855469 17.269531 58.191406 18.46875 57.8125 20.679688 C 55.292969 20.691406 53.292969 22.136719 53.296875 23.875 C 53.300781 25.820312 55.863281 27.269531 58.59375 26.867188 C 59.871094 29.363281 64.992188 29.914062 67.441406 27.792969 C 69.3125 29.90625 73.839844 29.359375 74.617188 26.90625 C 77.582031 27.859375 81.375 26.46875 81.375 23.601562 C 81.375 20.964844 78.15625 19.550781 75.28125 20.125 " fill-opacity="1" fill-rule="nonzero"/><path fill="#eaebef" d="M 57.792969 20.683594 C 57.640625 20.964844 57.53125 21.273438 57.472656 21.605469 C 55.691406 21.609375 54.160156 22.296875 53.371094 23.296875 C 53.75 21.832031 55.566406 20.695312 57.792969 20.683594 " fill-opacity="1" fill-rule="nonzero"/><path fill="#eaebef" d="M 81.25 22.726562 C 80.144531 21.273438 77.757812 20.605469 75.5625 21.039062 C 74.699219 18.703125 71.253906 17.683594 68.683594 18.976562 C 67.484375 15.828125 63.910156 15.953125 62.851562 19.179688 C 60.972656 18.296875 58.71875 19.023438 57.824219 20.625 C 58.238281 18.445312 60.875 17.277344 63.007812 18.296875 C 64.027344 15.125 67.480469 15.003906 68.636719 18.101562 C 71.121094 16.828125 74.445312 17.828125 75.28125 20.125 C 77.820312 19.617188 80.628906 20.660156 81.25 22.726562 " fill-opacity="1" fill-rule="nonzero"/><path fill="#eaebef" d="M 57.824219 20.625 C 57.820312 20.644531 57.816406 20.660156 57.8125 20.683594 L 57.792969 20.683594 C 57.800781 20.660156 57.8125 20.644531 57.824219 20.625 " fill-opacity="1" fill-rule="nonzero"/><path fill="#eaebef" d="M 74.617188 26.90625 C 73.84375 29.351562 69.320312 29.910156 67.441406 27.792969 C 64.988281 29.917969 59.867188 29.359375 58.59375 26.867188 C 55.566406 27.316406 52.757812 25.480469 53.382812 23.246094 C 53.855469 24.886719 56.171875 25.996094 58.59375 25.636719 C 59.257812 26.9375 61.152344 27.875 63.386719 27.875 C 65.046875 27.875 66.542969 26.414062 67.464844 25.613281 C 68.164062 26.40625 69.371094 27.875 70.773438 27.875 C 72.648438 27.875 74.21875 26.933594 74.617188 25.675781 C 77.351562 26.554688 80.8125 25.4375 81.3125 22.984375 C 81.960938 26.148438 77.886719 27.957031 74.617188 26.90625 " fill-opacity="1" fill-rule="nonzero"/><path fill="#eaebef" d="M 78.84375 25.621094 C 76.929688 27.25 74.328125 26.597656 73.410156 24.269531 C 74.84375 25.648438 76.929688 26.167969 78.84375 25.621094 " fill-opacity="1" fill-rule="nonzero"/><path fill="#eaebef" d="M 60.519531 24.800781 C 59.148438 26.90625 56.46875 27.015625 54.921875 25.046875 C 56.691406 25.964844 58.839844 25.867188 60.519531 24.800781 " fill-opacity="1" fill-rule="nonzero"/><path fill="#eaebef" d="M 70.347656 24.566406 C 68.976562 26.675781 66.296875 26.785156 64.753906 24.816406 C 66.519531 25.730469 68.667969 25.636719 70.347656 24.566406 " fill-opacity="1" fill-rule="nonzero"/><path fill="#eaebef" d="M 61.242188 22.597656 C 62.613281 20.488281 65.292969 20.378906 66.839844 22.347656 C 65.070312 21.433594 62.921875 21.527344 61.242188 22.597656 " fill-opacity="1" fill-rule="nonzero"/><path fill="#eaebef" d="M 74.273438 21.769531 C 75.648438 19.664062 78.328125 19.550781 79.871094 21.519531 C 78.105469 20.605469 75.957031 20.699219 74.273438 21.769531 " fill-opacity="1" fill-rule="nonzero"/><path fill="#eaebef" d="M 68.054688 19.667969 C 69.269531 17.464844 71.933594 17.15625 73.617188 19.007812 C 71.789062 18.222656 69.652344 18.476562 68.054688 19.667969 " fill-opacity="1" fill-rule="nonzero"/><path fill="#eaebef" d="M 58.105469 19.855469 C 59.457031 17.738281 62.136719 17.601562 63.699219 19.554688 C 61.921875 18.65625 59.773438 18.769531 58.105469 19.855469 " fill-opacity="1" fill-rule="nonzero"/><g transform="matrix(1, 0, 0, 1, 142, 40)"><g clip-path="url(#9ce2db953d)"><g fill="#ffffff" fill-opacity="1"><g transform="translate(0.934547, 53.809448)"><g><path d="M 3.71875 -36.40625 L 12.84375 -36.40625 L 12.84375 -6.828125 L 28.84375 -6.828125 L 28.84375 0.5 L 3.71875 0.5 Z M 3.71875 -36.40625 "/></g></g></g><g fill="#ffffff" fill-opacity="1"><g transform="translate(33.484199, 53.809448)"><g><path d="M 32.203125 -7.46875 L 30.4375 0.65625 L 2.5625 0.65625 L 2.5625 -27.078125 L 31.546875 -27.078125 L 31.546875 -10.828125 L 11.59375 -10.828125 L 11.59375 -4.8125 L 23.421875 -4.8125 L 24.21875 -7.46875 Z M 11.59375 -21.5625 L 11.59375 -16.34375 L 22.828125 -16.34375 L 22.828125 -21.5625 Z M 11.59375 -21.5625 "/></g></g></g><g fill="#ffffff" fill-opacity="1"><g transform="translate(68.240608, 53.809448)"><g><path d="M 2.515625 -30.703125 L 2.515625 -38.625 L 11.234375 -38.625 L 11.234375 -30.703125 Z M 2.515625 0.609375 L 2.515625 -26.984375 L 11.234375 -26.984375 L 11.234375 0.609375 Z M 2.515625 0.609375 "/></g></g></g><g fill="#ffffff" fill-opacity="1"><g transform="translate(81.982676, 53.809448)"><g><path d="M 11.984375 -21.71875 L 11.984375 -16.15625 L 30.5 -16.15625 L 30.5 0.546875 L 3.8125 0.546875 L 1.953125 -7.421875 L 10.28125 -7.421875 L 11.03125 -4.921875 L 21.109375 -4.921875 L 21.109375 -10.640625 L 2.765625 -10.640625 L 2.765625 -27.234375 L 30.09375 -27.234375 L 30.09375 -19.8125 L 21.21875 -19.8125 L 21.21875 -21.71875 Z M 11.984375 -21.71875 "/></g></g></g><g fill="#ffffff" fill-opacity="1"><g transform="translate(114.432017, 53.809448)"><g><path d="M 2.3125 0.609375 L 2.3125 -27.03125 L 11.03125 -27.03125 L 11.03125 -5.96875 L 20.0625 -5.96875 L 20.0625 -27.03125 L 28.890625 -27.03125 L 28.890625 0.609375 Z M 2.3125 0.609375 "/></g></g></g><g fill="#ffffff" fill-opacity="1"><g transform="translate(145.62753, 53.809448)"><g><path d="M 23.328125 -20.921875 L 11.1875 -17.703125 L 11.1875 0.65625 L 2.609375 0.65625 L 2.609375 -26.890625 L 11.1875 -26.890625 L 11.1875 -24.53125 L 23.328125 -27.78125 Z M 23.328125 -20.921875 "/></g></g></g><g fill="#ffffff" fill-opacity="1"><g transform="translate(171.556921, 53.809448)"><g><path d="M 26.78125 -7.875 L 13.390625 -7.875 L 10.640625 0.5 L 0.609375 0.5 L 14.25 -36.40625 L 25.78125 -36.40625 L 39.921875 0.5 L 29.484375 0.5 Z M 24.734375 -14.1875 L 20.15625 -28.34375 L 15.5 -14.1875 Z M 24.734375 -14.1875 "/></g></g></g></g></g></svg>